<?xml version="1.0" encoding="utf-8"?>
<!-- Generator: Adobe Illustrator 18.0.0, SVG Export Plug-In . SVG Version: 6.00 Build 0)  -->
<!DOCTYPE svg PUBLIC "-//W3C//DTD SVG 1.1//EN" "http://www.w3.org/Graphics/SVG/1.1/DTD/svg11.dtd">
<svg version="1.1" id="Layer_1" xmlns="http://www.w3.org/2000/svg" xmlns:xlink="http://www.w3.org/1999/xlink" x="0px" y="0px"
	 width="124.1px" height="104px" viewBox="10.4 32.3 124.1 104" enable-background="new 10.4 32.3 124.1 104" xml:space="preserve">
<path fill="#80C31C" d="M123,49.2h11.2v10.3H123v27.6c0,5.2,1.3,6.5,6.5,6.5c1.6,0,3.1-0.1,4.8-0.4v12c-2.6,0.4-5.9,0.5-9,0.5
	c-9.4,0-17.6-2.2-17.6-13.3v-33H95.1l3.3-10.3h9.3V32.4H123V49.2z"/>
<g>
	<path fill="#FFFFFF" d="M19,41.9h-2l-1.2-4.7l0,0l-1.2,4.7h-2l-2.2-7h2l1.3,4.7l0,0l1.2-4.7h1.9l1.2,4.7l0,0l1.3-4.7h2L19,41.9z"/>
	<path fill="#FFFFFF" d="M25.3,34.8c2.2,0,3.6,1.5,3.6,3.7s-1.4,3.7-3.6,3.7s-3.6-1.5-3.6-3.7C21.7,36.2,23.2,34.8,25.3,34.8z
		 M25.3,40.7c1.3,0,1.7-1.1,1.7-2.2c0-1.1-0.4-2.2-1.7-2.2c-1.3,0-1.7,1.1-1.7,2.2C23.7,39.5,24,40.7,25.3,40.7z"/>
	<path fill="#FFFFFF" d="M30.5,34.9h1.8v1.3l0,0c0.4-0.9,1.3-1.5,2.2-1.5c0.1,0,0.3,0,0.4,0.1v1.8c-0.2,0-0.5-0.1-0.7-0.1
		c-1.4,0-1.9,1-1.9,2.2v3.1h-1.9v-6.9H30.5z"/>
	<path fill="#FFFFFF" d="M36.3,32.3h1.9v5.2l2.4-2.5h2.3l-2.6,2.6l2.9,4.4h-2.3L39,38.9l-0.7,0.7V42h-1.9v-9.7H36.3z"/>
	<path fill="#FFFFFF" d="M46.1,33.9h-1.9v-1.6h1.9V33.9z M44.2,34.9h1.9v7h-1.9V34.9z"/>
	<path fill="#FFFFFF" d="M47.8,34.9h1.8v1l0,0c0.5-0.8,1.3-1.2,2.1-1.2c2,0,2.6,1.1,2.6,2.9v4.3h-1.9V38c0-1.1-0.3-1.7-1.2-1.7
		c-1,0-1.5,0.6-1.5,2V42h-1.9C47.8,42,47.8,34.9,47.8,34.9z"/>
	<path fill="#FFFFFF" d="M62.8,41.5c0,1.1-0.4,3.1-3.6,3.1c-1.4,0-3-0.6-3.1-2.2H58c0.2,0.7,0.8,1,1.4,1c1.1,0,1.6-0.7,1.5-1.7v-0.9
		l0,0c-0.4,0.7-1.3,1.1-2.1,1.1c-2.1,0-3-1.6-3-3.5c0-1.8,1-3.5,3-3.5c0.9,0,1.6,0.3,2.1,1.1l0,0v-0.9h1.8L62.8,41.5L62.8,41.5z
		 M61,38.3c0-1.1-0.4-2.1-1.6-2.1c-1.1,0-1.6,0.9-1.6,2c0,1,0.4,2.1,1.6,2.1C60.5,40.3,61,39.3,61,38.3z"/>
	<path fill="#80C31C" d="M67,34.9h1.4v1.3H67v3.5c0,0.6,0.2,0.8,0.8,0.8c0.2,0,0.4,0,0.6-0.1v1.5C68.1,42,67.7,42,67.3,42
		c-1.2,0-2.2-0.3-2.2-1.7v-4.1H64v-1.3h1.2v-2.1H67V34.9z"/>
	<path fill="#80C31C" d="M69.8,37.1c0.1-1.8,1.7-2.3,3.3-2.3c1.4,0,3.1,0.3,3.1,2v3.6c0,0.6,0.1,1.3,0.2,1.6h-1.9
		c-0.1-0.2-0.1-0.4-0.1-0.7c-0.6,0.6-1.5,0.9-2.3,0.9c-1.3,0-2.4-0.7-2.4-2.1c0-1.6,1.2-2,2.4-2.1c1.2-0.2,2.3-0.1,2.3-0.9
		c0-0.8-0.6-0.9-1.2-0.9c-0.7,0-1.2,0.3-1.3,1.1h-2.1V37.1z M74.2,38.5c-0.3,0.3-1,0.3-1.6,0.4c-0.6,0.1-1.1,0.3-1.1,1
		s0.6,0.9,1.2,0.9c1.5,0,1.6-1.2,1.6-1.6L74.2,38.5L74.2,38.5z"/>
	<path fill="#80C31C" d="M77.9,32.3h1.9v9.6h-1.9V32.3z"/>
	<path fill="#80C31C" d="M83.2,38.9c0.1,1.2,0.6,1.8,1.7,1.8c0.8,0,1.4-0.5,1.5-0.9h1.7c-0.5,1.6-1.7,2.3-3.3,2.3
		c-2.2,0-3.6-1.5-3.6-3.7c0-2.1,1.4-3.7,3.6-3.7c2.4,0,3.5,2,3.4,4.1h-5V38.9z M86.3,37.7c-0.2-1-0.6-1.5-1.5-1.5
		c-1.2,0-1.6,0.9-1.6,1.5H86.3z"/>
	<path fill="#80C31C" d="M89.6,34.9h1.8v1l0,0c0.5-0.8,1.3-1.2,2.1-1.2c2,0,2.6,1.1,2.6,2.9v4.3h-1.9V38c0-1.1-0.3-1.7-1.2-1.7
		c-1,0-1.5,0.6-1.5,2V42h-1.9V34.9z"/>
	<path fill="#80C31C" d="M100.3,34.9h1.4v1.3h-1.4v3.5c0,0.6,0.2,0.8,0.8,0.8c0.2,0,0.4,0,0.6-0.1v1.5c-0.3,0.1-0.7,0.1-1.1,0.1
		c-1.2,0-2.2-0.3-2.2-1.7v-4.1h-1.2v-1.3h1.2v-2.1h1.9C100.3,32.8,100.3,34.9,100.3,34.9z"/>
</g>
<g>
	<path fill="#FFFFFF" d="M11.2,125.4H13v8.6h-1.9L11.2,125.4L11.2,125.4z"/>
	<path fill="#FFFFFF" d="M18.8,127h-2.6v-1.6h7v1.6h-2.6v7h-1.9v-7H18.8z"/>
	<path fill="#FFFFFF" d="M28.7,127.8h0.7v1.2l0,0c0.3-0.8,1.2-1.4,2.2-1.4c1.9,0,2.8,1.5,2.8,3.3c0,1.8-0.9,3.3-2.8,3.3
		c-0.9,0-1.8-0.5-2.1-1.4l0,0v3.5h-0.8C28.7,136.3,28.7,127.8,28.7,127.8z M31.6,128.2c-1.7,0-2.2,1.2-2.2,2.6
		c0,1.3,0.6,2.6,2.2,2.6c1.4,0,2-1.4,2-2.6C33.6,129.6,33,128.2,31.6,128.2z"/>
	<path fill="#FFFFFF" d="M38.8,127.8h0.7v1.5l0,0c0.4-1,1.2-1.6,2.3-1.5v0.8c-1.4-0.1-2.3,0.9-2.3,2.2v3.3h-0.8L38.8,127.8
		L38.8,127.8z"/>
	<path fill="#FFFFFF" d="M51.2,130.9c0,1.8-1,3.3-2.9,3.3s-2.9-1.5-2.9-3.3s1-3.3,2.9-3.3C50.2,127.6,51.2,129.1,51.2,130.9z
		 M46.1,130.9c0,1.3,0.7,2.6,2.2,2.6s2.2-1.3,2.2-2.6s-0.7-2.6-2.2-2.6C46.8,128.2,46.1,129.6,46.1,130.9z"/>
	<path fill="#FFFFFF" d="M58,128.4h-1.2v5.6H56v-5.6h-1v-0.6h1v-0.6c0-1.1,0.3-1.8,1.5-1.8c0.2,0,0.4,0,0.6,0v0.6
		c-0.2,0-0.4-0.1-0.6-0.1c-0.8,0-0.8,0.5-0.8,1.2v0.5H58V128.4z"/>
	<path fill="#FFFFFF" d="M62.4,131.1c0,1.1,0.6,2.4,2,2.4c1.1,0,1.7-0.6,1.9-1.6h0.8c-0.3,1.4-1.1,2.2-2.7,2.2c-2,0-2.8-1.5-2.8-3.3
		c0-1.6,0.8-3.3,2.8-3.3s2.8,1.7,2.7,3.5h-4.7V131.1z M66.5,130.4c0-1.1-0.7-2.2-2-2.2c-1.2,0-1.9,1.1-2,2.2H66.5z"/>
	<path fill="#FFFFFF" d="M75.2,129.6c0-0.9-0.8-1.4-1.6-1.4c-0.7,0-1.5,0.3-1.5,1.1c0,0.7,0.8,0.9,1.3,1l1,0.2
		c0.9,0.1,1.8,0.6,1.8,1.7c0,1.3-1.3,1.9-2.5,1.9c-1.4,0-2.4-0.7-2.5-2.2H72c0.1,1,0.8,1.5,1.8,1.5c0.7,0,1.7-0.3,1.7-1.2
		c0-0.7-0.7-1-1.4-1.1l-1-0.2c-1-0.3-1.7-0.6-1.7-1.7c0-1.3,1.2-1.7,2.3-1.7c1.2,0,2.2,0.6,2.3,2L75.2,129.6L75.2,129.6z"/>
	<path fill="#FFFFFF" d="M84.3,129.6c0-0.9-0.8-1.4-1.6-1.4c-0.7,0-1.5,0.3-1.5,1.1c0,0.7,0.8,0.9,1.3,1l1,0.2
		c0.9,0.1,1.8,0.6,1.8,1.7c0,1.3-1.3,1.9-2.5,1.9c-1.4,0-2.4-0.7-2.5-2.2H81c0.1,1,0.8,1.5,1.8,1.5c0.7,0,1.7-0.3,1.7-1.2
		c0-0.7-0.7-1-1.4-1.1l-1-0.2c-1-0.3-1.7-0.6-1.7-1.7c0-1.3,1.2-1.7,2.3-1.7c1.2,0,2.2,0.6,2.3,2L84.3,129.6L84.3,129.6z"/>
	<path fill="#FFFFFF" d="M89.6,125.4h0.8v1.2h-0.8V125.4z M89.6,127.8h0.8v6.2h-0.8V127.8z"/>
	<path fill="#FFFFFF" d="M100.6,130.9c0,1.8-1,3.3-2.9,3.3s-2.9-1.5-2.9-3.3s1-3.3,2.9-3.3C99.6,127.6,100.6,129.1,100.6,130.9z
		 M95.5,130.9c0,1.3,0.7,2.6,2.2,2.6s2.2-1.3,2.2-2.6s-0.7-2.6-2.2-2.6C96.3,128.2,95.5,129.6,95.5,130.9z"/>
	<path fill="#FFFFFF" d="M105,127.8h0.8v1.1l0,0c0.3-0.7,1.1-1.2,2-1.2c1.7,0,2.3,0.9,2.3,2.4v4h-0.8v-3.9c0-1.1-0.3-1.9-1.6-1.9
		c-1.2,0-1.9,0.9-1.9,2.1v3.6H105V127.8z"/>
	<path fill="#FFFFFF" d="M114.7,129.7c0.1-1.5,1.1-2.1,2.5-2.1c1.1,0,2.3,0.3,2.3,2v3.3c0,0.3,0.1,0.5,0.4,0.5c0.1,0,0.2,0,0.2,0
		v0.6c-0.2,0-0.3,0-0.5,0c-0.8,0-0.9-0.4-0.9-1.1l0,0c-0.5,0.8-1.1,1.3-2.3,1.3c-1.1,0-2.1-0.6-2.1-1.8c0-1.7,1.7-1.8,3.3-2
		c0.6-0.1,1-0.2,1-0.8c0-1-0.7-1.3-1.6-1.3s-1.6,0.4-1.7,1.4H114.7z M118.7,130.6L118.7,130.6c-0.1,0.2-0.5,0.2-0.7,0.3
		c-1.3,0.2-2.9,0.2-2.9,1.4c0,0.8,0.7,1.2,1.4,1.2c1.2,0,2.2-0.7,2.2-1.9V130.6z"/>
	<path fill="#FFFFFF" d="M124.3,125.4h0.8v8.6h-0.8V125.4z"/>
	<path fill="#FFFFFF" d="M133.5,129.6c0-0.9-0.8-1.4-1.6-1.4c-0.7,0-1.5,0.3-1.5,1.1c0,0.7,0.8,0.9,1.3,1l1,0.2
		c0.9,0.1,1.8,0.6,1.8,1.7c0,1.3-1.3,1.9-2.5,1.9c-1.4,0-2.4-0.7-2.5-2.2h0.8c0.1,1,0.8,1.5,1.8,1.5c0.7,0,1.7-0.3,1.7-1.2
		c0-0.7-0.7-1-1.4-1.1l-1-0.2c-1-0.3-1.7-0.6-1.7-1.7c0-1.3,1.2-1.7,2.3-1.7c1.2,0,2.2,0.6,2.3,2L133.5,129.6L133.5,129.6z"/>
</g>
<path fill="#FFFFFF" d="M80.8,105H65l-9.9-37.5h-0.2L45.3,105H29.5L11.8,49.2H28l10.3,37.9h0.2l9.3-37.9h14.9L72.1,87h0.2l10.3-37.8
	h15.8L80.8,105z"/>
</svg>
